<?xml version="1.0" encoding="utf-8"?>
<!-- Generator: Adobe Illustrator 25.0.1, SVG Export Plug-In . SVG Version: 6.00 Build 0)  -->
<svg version="1.1" id="Layer_1" focusable="false" xmlns="http://www.w3.org/2000/svg" xmlns:xlink="http://www.w3.org/1999/xlink"
	 x="0px" y="0px" viewBox="0 0 512 512" style="enable-background:new 0 0 512 512;" xml:space="preserve">
<style type="text/css">
	.st0{fill:#373737;}
</style>
<path class="st0" d="M504,256C504,119,393,8,256,8S8,119,8,256s111,248,248,248S504,393,504,256z M56,256c0-110.5,89.5-200,200-200
	s200,89.5,200,200s-89.5,200-200,200S56,366.5,56,256z M245.1,385.9L123.7,264.5c-4.7-4.7-4.7-12.3,0-17l121.4-121.4
	c4.7-4.7,12.3-4.7,17,0l19.6,19.6c4.8,4.8,4.7,12.5-0.2,17.2L211.2,230H372c6.6,0,12,5.4,12,12v28c0,6.6-5.4,12-12,12H211.2
	l70.3,67.1c4.9,4.7,5,12.4,0.2,17.2l-19.6,19.6C257.4,390.6,249.8,390.6,245.1,385.9L245.1,385.9z"/>
</svg>
