<?xml version="1.0" encoding="utf-8"?>
<!-- Generator: Adobe Illustrator 25.0.1, SVG Export Plug-In . SVG Version: 6.00 Build 0)  -->
<svg version="1.1" id="Layer_1" focusable="false" xmlns="http://www.w3.org/2000/svg" xmlns:xlink="http://www.w3.org/1999/xlink"
	 x="0px" y="0px" viewBox="0 0 448 448" style="enable-background:new 0 0 448 448;" xml:space="preserve">
<style type="text/css">
	.st0{fill:#8E8E8E;}
</style>
<path class="st0" d="M416,0H32C14.3,0,0,14.3,0,32v384c0,17.7,14.3,32,32,32h384c17.7,0,32-14.3,32-32V32C448,14.3,433.7,0,416,0z
	 M400,400H48v-64h352V400z M400,288h-16l-97.1-121c-7.5-9.3-22.4-9.3-29.9,0l-63.4,79l-33.1-45.8c-7.9-11-25.4-11-33.3,0L64,288H48
	V48h352V288z M144,144c17.7,0,32-14.3,32-32s-14.3-32-32-32s-32,14.3-32,32S126.3,144,144,144z"/>
</svg>
