<?xml version="1.0" encoding="utf-8"?>
<!-- Generator: Adobe Illustrator 25.0.1, SVG Export Plug-In . SVG Version: 6.00 Build 0)  -->
<svg version="1.1" id="Layer_1" focusable="false" xmlns="http://www.w3.org/2000/svg" xmlns:xlink="http://www.w3.org/1999/xlink"
	 x="0px" y="0px" viewBox="0 0 320 362.2" style="enable-background:new 0 0 320 362.2;" xml:space="preserve">
<style type="text/css">
	.st0{fill:#BF5050;}
</style>
<path class="st0" d="M193.9,181.1L296.5,78.6l21.1-21.1c3.1-3.1,3.1-8.2,0-11.3L295,23.5c-3.1-3.1-8.2-3.1-11.3,0L160,147.2
	L36.3,23.5c-3.1-3.1-8.2-3.1-11.3,0L2.3,46.1c-3.1,3.1-3.1,8.2,0,11.3l123.7,123.7L2.3,304.8c-3.1,3.1-3.1,8.2,0,11.3L25,338.8
	c3.1,3.1,8.2,3.1,11.3,0L160,215.1l102.6,102.6l21.1,21.1c3.1,3.1,8.2,3.1,11.3,0l22.6-22.6c3.1-3.1,3.1-8.2,0-11.3L193.9,181.1z"/>
</svg>
